<svg version="1.1" xmlns="http://www.w3.org/2000/svg" viewBox="0 0 571.1100082397461 370.99999999999994" width="1142.2200164794922" height="741.9999999999999">
  <!-- svg-source:excalidraw -->
  
  <defs>
    <style class="style-fonts">
      @font-face {
        font-family: "Virgil";
        src: url("https://excalidraw.com/Virgil.woff2");
      }
      @font-face {
        font-family: "Cascadia";
        src: url("https://excalidraw.com/Cascadia.woff2");
      }
    </style>
  </defs>
  <rect x="0" y="0" width="571.1100082397461" height="370.99999999999994" fill="#ffffff"></rect><g stroke-linecap="round" transform="translate(10 38.49999999999994) rotate(0 64.5 42.5)"><path d="M92.11 4.88 C102.04 7.38, 111.88 12.74, 117.92 18.46 C123.95 24.19, 127.42 32.12, 128.33 39.22 C129.24 46.31, 127.77 54.87, 123.4 61.03 C119.02 67.2, 110.96 72.34, 102.06 76.23 C93.17 80.12, 80.81 83.45, 70.03 84.39 C59.24 85.33, 46.95 84.67, 37.38 81.87 C27.82 79.07, 18.94 73.4, 12.63 67.61 C6.32 61.83, 0.72 54.27, -0.49 47.16 C-1.7 40.06, 0.69 31.63, 5.37 24.96 C10.05 18.28, 18.79 11.07, 27.59 7.1 C36.38 3.12, 46.97 1.67, 58.15 1.09 C69.33 0.51, 88.4 2.83, 94.67 3.63 C100.94 4.44, 96.46 5.15, 95.77 5.94 M65.37 -1.29 C75.45 -1.97, 86.74 0.7, 96.02 4.33 C105.31 7.95, 115.58 14, 121.07 20.45 C126.56 26.91, 129.15 35.86, 128.98 43.05 C128.8 50.24, 125.38 57.7, 120.04 63.59 C114.7 69.49, 106.19 74.92, 96.92 78.42 C87.66 81.92, 75.14 84.35, 64.46 84.59 C53.79 84.82, 41.98 83.37, 32.89 79.81 C23.8 76.25, 15.33 69.4, 9.92 63.22 C4.51 57.05, 0.73 49.56, 0.41 42.76 C0.09 35.95, 2.5 28.61, 8.03 22.39 C13.55 16.16, 24.24 9.27, 33.58 5.42 C42.92 1.57, 58.82 0.28, 64.06 -0.71 C69.29 -1.71, 64.91 -1.59, 65 -0.56" stroke="#1e1e1e" stroke-width="1" fill="none"></path></g><g transform="translate(41.7216144445224 55.94796179957166) rotate(0 32.66999816894531 25)"><text x="32.66999816894531" y="0" font-family="Virgil, Segoe UI Emoji" font-size="20px" fill="#1e1e1e" text-anchor="middle" style="white-space: pre;" direction="ltr" dominant-baseline="text-before-edge">Not </text><text x="32.66999816894531" y="25" font-family="Virgil, Segoe UI Emoji" font-size="20px" fill="#1e1e1e" text-anchor="middle" style="white-space: pre;" direction="ltr" dominant-baseline="text-before-edge">working</text></g><g stroke-linecap="round" transform="translate(328.5 34.99999999999994) rotate(0 64.5 42.5)"><path d="M64.25 0.7 C74.31 -0.17, 85.91 1.53, 95.26 4.74 C104.61 7.94, 114.76 13.7, 120.34 19.93 C125.91 26.16, 128.74 34.82, 128.69 42.12 C128.65 49.43, 125.25 57.51, 120.09 63.77 C114.93 70.03, 106.92 76.02, 97.74 79.7 C88.56 83.38, 75.97 86.03, 65.02 85.85 C54.07 85.67, 41.44 82.18, 32.05 78.62 C22.67 75.07, 13.96 70.63, 8.71 64.53 C3.46 58.43, 0.6 49.18, 0.54 42.02 C0.48 34.85, 3.13 27.5, 8.35 21.57 C13.56 15.64, 20.68 9.87, 31.84 6.43 C42.99 2.98, 66.1 1.25, 75.28 0.89 C84.46 0.53, 86.98 3.78, 86.9 4.29 M77.97 1.26 C88.36 2.03, 100.52 5.47, 108.44 9.89 C116.36 14.31, 122.08 20.78, 125.48 27.79 C128.88 34.8, 130.89 44.68, 128.84 51.95 C126.79 59.21, 120.73 66.26, 113.18 71.39 C105.64 76.51, 94.07 80.79, 83.57 82.69 C73.07 84.6, 60.66 84.12, 50.18 82.83 C39.69 81.53, 28.59 79.26, 20.64 74.91 C12.68 70.57, 5.69 63.57, 2.46 56.76 C-0.77 49.95, -0.86 41.27, 1.26 34.06 C3.38 26.84, 8.03 18.65, 15.19 13.48 C22.36 8.31, 33.76 4.94, 44.24 3.04 C54.72 1.14, 72.55 2.22, 78.06 2.09 C83.56 1.97, 77.68 1.6, 77.28 2.29" stroke="#1e1e1e" stroke-width="1" fill="none"></path></g><g transform="translate(358.85161169794037 64.94796179957166) rotate(0 34.040000915527344 12.5)"><text x="34.040000915527344" y="0" font-family="Virgil, Segoe UI Emoji" font-size="20px" fill="#1e1e1e" text-anchor="middle" style="white-space: pre;" direction="ltr" dominant-baseline="text-before-edge">Working</text></g><g mask="url(#mask-n_rnL3YvZPdISEmNVgn4n)" stroke-linecap="round"><g transform="translate(139 65.5) rotate(0 94.17639586591159 -20.92499326881314)"><path d="M0.01 -0.15 C13.95 -7.46, 52.3 -43.86, 83.94 -43.67 C115.57 -43.47, 172.28 -6.57, 189.8 1.02 M-1.45 -1.27 C12.3 -8.45, 51.23 -43, 82.95 -42.48 C114.68 -41.97, 171.29 -5.74, 188.93 1.82" stroke="#1e1e1e" stroke-width="1" fill="none"></path></g><g transform="translate(139 65.5) rotate(0 94.17639586591159 -20.92499326881314)"><path d="M158.94 -2.17 C167.74 -1.14, 176.89 -1.14, 188.68 3.09 M159.21 -2.96 C168.09 -0.49, 176.55 -0.57, 189.63 1.33" stroke="#1e1e1e" stroke-width="1" fill="none"></path></g><g transform="translate(139 65.5) rotate(0 94.17639586591159 -20.92499326881314)"><path d="M168.39 -20.38 C174.15 -13.43, 180.23 -7.51, 188.68 3.09 M168.67 -21.17 C174.72 -13.24, 180.34 -7.85, 189.63 1.33" stroke="#1e1e1e" stroke-width="1" fill="none"></path></g></g><mask id="mask-n_rnL3YvZPdISEmNVgn4n"><rect x="0" y="0" fill="#fff" width="429" height="210.5"></rect><rect x="156.9800033569336" y="10" fill="#000" width="132.0399932861328" height="25" opacity="1"></rect></mask><g transform="translate(156.9800033569336 10) rotate(0 76.196392508978 34.57500673118686)"><text x="66.0199966430664" y="0" font-family="Virgil, Segoe UI Emoji" font-size="20px" fill="#1e1e1e" text-anchor="middle" style="white-space: pre;" direction="ltr" dominant-baseline="text-before-edge">Start working</text></g><g stroke-linecap="round" transform="translate(330.5 275.99999999999994) rotate(0 64.5 42.5)"><path d="M61.06 0.95 C70.92 0.02, 83.39 2.23, 92.79 5.43 C102.2 8.63, 111.55 14.27, 117.5 20.14 C123.45 26.01, 127.72 33.81, 128.5 40.64 C129.28 47.48, 126.93 54.88, 122.17 61.15 C117.42 67.42, 108.99 74.15, 99.99 78.26 C90.99 82.38, 78.94 85.48, 68.17 85.85 C57.4 86.21, 44.97 83.9, 35.38 80.45 C25.78 76.99, 16.48 70.96, 10.59 65.09 C4.7 59.23, 0.53 52.26, 0.02 45.25 C-0.48 38.24, 2.7 29.57, 7.55 23.04 C12.41 16.51, 18.43 9.69, 29.15 6.04 C39.87 2.39, 63.27 1.72, 71.87 1.16 C80.47 0.59, 80.85 1.98, 80.74 2.67 M76.94 0.24 C87.03 1.09, 96.92 6.27, 104.87 10.77 C112.82 15.26, 120.75 20.46, 124.64 27.2 C128.54 33.95, 130.16 44.37, 128.27 51.23 C126.38 58.1, 120.26 63.11, 113.3 68.4 C106.34 73.69, 96.6 80.16, 86.5 82.97 C76.4 85.78, 63.4 86.79, 52.71 85.25 C42.02 83.72, 30.32 78.43, 22.37 73.77 C14.41 69.1, 8.47 63.5, 4.99 57.27 C1.5 51.03, 0.02 43.23, 1.44 36.38 C2.86 29.53, 6.89 21.91, 13.48 16.15 C20.07 10.38, 30.59 4.13, 40.98 1.79 C51.37 -0.55, 69.85 1.98, 75.8 2.08 C81.76 2.18, 76.75 1.68, 76.73 2.38" stroke="#1e1e1e" stroke-width="1" fill="none"></path></g><g transform="translate(356.83161505487396 293.4479617995717) rotate(0 38.05999755859375 25)"><text x="38.05999755859375" y="0" font-family="Virgil, Segoe UI Emoji" font-size="20px" fill="#1e1e1e" text-anchor="middle" style="white-space: pre;" direction="ltr" dominant-baseline="text-before-edge">Taking </text><text x="38.05999755859375" y="25" font-family="Virgil, Segoe UI Emoji" font-size="20px" fill="#1e1e1e" text-anchor="middle" style="white-space: pre;" direction="ltr" dominant-baseline="text-before-edge">a break</text></g><g mask="url(#mask-sVB8JBNgpEDkt69Gm7Ohh)" stroke-linecap="round"><g transform="translate(444 105.49999999999994) rotate(0 20.58758650450642 93.87976213879884)"><path d="M0.38 -0.81 C8.46 16.15, 49.82 69.48, 48.34 101.05 C46.85 132.61, 1.03 173.91, -8.52 188.57 M-0.88 1.38 C7.6 18.53, 52.15 71.23, 50.7 102.08 C49.25 132.94, 0.42 172.38, -9.56 186.52" stroke="#1e1e1e" stroke-width="1" fill="none"></path></g><g transform="translate(444 105.49999999999994) rotate(0 20.58758650450642 93.87976213879884)"><path d="M0.62 157.72 C-3.14 166.06, -3.97 173.43, -7.95 187.39 M1.45 158.32 C-1.88 168.7, -5.46 177.08, -10.27 186.89" stroke="#1e1e1e" stroke-width="1" fill="none"></path></g><g transform="translate(444 105.49999999999994) rotate(0 20.58758650450642 93.87976213879884)"><path d="M15.73 171.61 C7.65 175.96, 2.42 179.28, -7.95 187.39 M16.55 172.21 C7.95 177.75, -0.77 181.4, -10.27 186.89" stroke="#1e1e1e" stroke-width="1" fill="none"></path></g></g><mask id="mask-sVB8JBNgpEDkt69Gm7Ohh"><rect x="0" y="0" fill="#fff" width="601" height="393.49999999999994"></rect><rect x="424.8899917602539" y="195" fill="#000" width="136.2200164794922" height="25" opacity="1"></rect></mask><g transform="translate(424.8899917602539 195) rotate(0 39.69759474425251 4.379762138798839)"><text x="68.1100082397461" y="0" font-family="Virgil, Segoe UI Emoji" font-size="20px" fill="#1e1e1e" text-anchor="middle" style="white-space: pre;" direction="ltr" dominant-baseline="text-before-edge">Take a break</text></g><g mask="url(#mask-OFfZp3xTfkaBFNOxPomYs)" stroke-linecap="round"><g transform="translate(344 291.49999999999994) rotate(0 -27.991734287391125 -93.88578992062247)"><path d="M-0.19 -1.15 C-9.44 -15.13, -54.84 -53.02, -55.77 -84.27 C-56.7 -115.51, -14.05 -171.5, -5.77 -188.63 M-1.76 0.85 C-10.59 -12.9, -52.69 -51.45, -53.47 -82.87 C-54.24 -114.28, -14.34 -169.94, -6.42 -187.64" stroke="#1e1e1e" stroke-width="1" fill="none"></path></g><g transform="translate(344 291.49999999999994) rotate(0 -27.991734287391125 -93.88578992062247)"><path d="M-13.24 -159.33 C-10.31 -165.78, -9.56 -174.46, -4.79 -187.53 M-11.12 -157.26 C-10.22 -167, -8.73 -175.22, -7.23 -186.68" stroke="#1e1e1e" stroke-width="1" fill="none"></path></g><g transform="translate(344 291.49999999999994) rotate(0 -27.991734287391125 -93.88578992062247)"><path d="M-31.12 -169.4 C-23.31 -173.06, -17.65 -178.97, -4.79 -187.53 M-29 -167.34 C-23.28 -174.45, -16.92 -179.91, -7.23 -186.68" stroke="#1e1e1e" stroke-width="1" fill="none"></path></g></g><mask id="mask-OFfZp3xTfkaBFNOxPomYs"><rect x="0" y="0" fill="#fff" width="499" height="579.5"></rect><rect x="232.45000076293945" y="195" fill="#000" width="113.0999984741211" height="25" opacity="1"></rect></mask><g transform="translate(232.45000076293945 195) rotate(0 83.55826494966942 2.6142100793775285)"><text x="56.54999923706055" y="0" font-family="Virgil, Segoe UI Emoji" font-size="20px" fill="#1e1e1e" text-anchor="middle" style="white-space: pre;" direction="ltr" dominant-baseline="text-before-edge">Finish break</text></g><g mask="url(#mask-O0KnoVNglTMlr4a60n9xN)" stroke-linecap="round"><g transform="translate(328 89.49999999999994) rotate(0 -112.08297181090339 19.20234968976024)"><path d="M-0.68 -0.03 C-18.14 6.23, -67.17 31.98, -104.45 36.95 C-141.73 41.93, -204.5 30.98, -224.37 29.82 M1.16 -1.09 C-16.44 5.42, -67.36 33.63, -105.11 38.46 C-142.86 43.29, -205.63 29.65, -225.33 27.9" stroke="#1e1e1e" stroke-width="1" fill="none"></path></g><g transform="translate(328 89.49999999999994) rotate(0 -112.08297181090339 19.20234968976024)"><path d="M-196.01 22.68 C-205.63 22.99, -213.75 26.13, -223.66 26.63 M-195.16 21.08 C-204.81 22.43, -212.08 24.3, -226.08 27.76" stroke="#1e1e1e" stroke-width="1" fill="none"></path></g><g transform="translate(328 89.49999999999994) rotate(0 -112.08297181090339 19.20234968976024)"><path d="M-198.93 43 C-207.51 36.7, -214.67 33.23, -223.66 26.63 M-198.09 41.4 C-207.02 37.08, -213.47 33.29, -226.08 27.76" stroke="#1e1e1e" stroke-width="1" fill="none"></path></g></g><mask id="mask-O0KnoVNglTMlr4a60n9xN"><rect x="0" y="0" fill="#fff" width="652" height="226.49999999999994"></rect><rect x="163.12999725341797" y="113.99999999999994" fill="#000" width="119.74000549316406" height="25" opacity="1"></rect></mask><g transform="translate(163.12999725341797 113.99999999999994) rotate(0 52.787030935678644 -5.29765031023976)"><text x="59.87000274658203" y="0" font-family="Virgil, Segoe UI Emoji" font-size="20px" fill="#1e1e1e" text-anchor="middle" style="white-space: pre;" direction="ltr" dominant-baseline="text-before-edge">Stop working</text></g><g mask="url(#mask-BDwrtfHJ4G0BkExBO7eLs)" stroke-linecap="round"><g transform="translate(330.0829718109035 314.2976503102397) rotate(0 -128.64936260767283 -91.78231903572882)"><path d="M0.8 0.92 C-29.14 -2.25, -135.59 12.75, -178.74 -18.08 C-221.9 -48.92, -245.11 -156.27, -258.1 -184.09 M-0.24 0.36 C-29.87 -2.69, -133.83 14.46, -176.42 -16.59 C-219.02 -47.64, -242.47 -158.06, -255.78 -185.95" stroke="#1e1e1e" stroke-width="1" fill="none"></path></g><g transform="translate(330.0829718109035 314.2976503102397) rotate(0 -128.64936260767283 -91.78231903572882)"><path d="M-235.3 -163.94 C-244.25 -173.11, -249.69 -179.48, -255.79 -184.2 M-236.73 -162.61 C-245.29 -171.66, -252.08 -180.25, -255.09 -185.28" stroke="#1e1e1e" stroke-width="1" fill="none"></path></g><g transform="translate(330.0829718109035 314.2976503102397) rotate(0 -128.64936260767283 -91.78231903572882)"><path d="M-254.68 -157.19 C-256.42 -169.03, -254.6 -177.91, -255.79 -184.2 M-256.11 -155.87 C-257.14 -167.66, -256.35 -178.89, -255.09 -185.28" stroke="#1e1e1e" stroke-width="1" fill="none"></path></g></g><mask id="mask-BDwrtfHJ4G0BkExBO7eLs"><rect x="0" y="0" fill="#fff" width="687.0829718109035" height="599.2976503102398"></rect><rect x="92.21296906432144" y="283.79765031023976" fill="#000" width="119.74000549316406" height="25" opacity="1"></rect></mask><g transform="translate(92.21296906432144 283.79765031023976) rotate(0 109.2206401389092 -61.28231903572882)"><text x="59.87000274658203" y="0" font-family="Virgil, Segoe UI Emoji" font-size="20px" fill="#1e1e1e" text-anchor="middle" style="white-space: pre;" direction="ltr" dominant-baseline="text-before-edge">Stop working</text></g></svg>